<svg id="Layer_1" data-name="Layer 1" xmlns="http://www.w3.org/2000/svg" viewBox="0 0 140.17 144"><defs><style>.cls-1,.cls-3{fill:#abaaa0;}.cls-1{stroke:#000;stroke-miterlimit:10;}.cls-2{fill:#e2cf23;}</style></defs><title>light_bulb_off</title><path class="cls-1" d="M72.23,115.18H67.94a12,12,0,0,1-12-12l-.08-6.87H84.31l-.08,6.87A12,12,0,0,1,72.23,115.18Z"/><path class="cls-2" d="M97,56.24A26.88,26.88,0,0,1,84.31,79.1V96.31H55.86V79.1A26.92,26.92,0,1,1,97,56.24Z"/><path d="M70.09,28.82A27.42,27.42,0,0,0,55.36,79.38V96.81h1v-1h0v-17l-.24-.15a26.43,26.43,0,1,1,27.92,0l-.24.15V95.7h0v1.11h1V79.38A27.42,27.42,0,0,0,70.09,28.82Z"/><path class="cls-3" d="M55.91,98.71c0,.08,6.52,7,20.35,3.16"/><path d="M68.28,103.54c-8.69,0-12.78-4.55-12.82-4.61l.45-.22.39-.31c.06.07,6.41,7.27,20,3.47l0,.13A31.28,31.28,0,0,1,68.28,103.54Z"/><path class="cls-3" d="M62.43,107.55c0,.08,6.53,5.16,21.4-.91"/><path d="M70.53,110.11c-5.53,0-7.88-2.12-8.1-2.56l.45-.22-.45.22.09-.09c.06,0,6.54,4.67,21.12-1.28l.38.93A35.92,35.92,0,0,1,70.53,110.11Z"/><path d="M77.81,51.63a4.31,4.31,0,0,0-3.47,1.74,4.33,4.33,0,0,0-8.51,0,4.28,4.28,0,0,0-3.46-1.74,4.33,4.33,0,1,0,0,8.67h.17L65,74.16l1.15-.2L63.69,60.09a4.34,4.34,0,0,0,2.93-3.32,4.32,4.32,0,0,0,6.93,0,4.35,4.35,0,0,0,2.93,3.32L74,74l1.15.2,2.47-13.87h.18a4.33,4.33,0,0,0,0-8.67ZM62.37,59.3A3.33,3.33,0,1,1,65.7,56,3.35,3.35,0,0,1,62.37,59.3Zm7.72-1.79a3.34,3.34,0,1,1,3.33-3.34A3.35,3.35,0,0,1,70.09,57.51Zm7.72,1.79A3.33,3.33,0,1,1,81.14,56,3.35,3.35,0,0,1,77.81,59.3Z"/></svg>