<?xml version="1.0" encoding="utf-8"?>
<!-- Generator: Adobe Illustrator 22.0.1, SVG Export Plug-In . SVG Version: 6.00 Build 0)  -->
<svg version="1.1" id="Layer_1" xmlns="http://www.w3.org/2000/svg" xmlns:xlink="http://www.w3.org/1999/xlink" x="0px" y="0px"
	 viewBox="0 0 433.7 112.7" style="enable-background:new 0 0 433.7 112.7;" xml:space="preserve">
<style type="text/css">
	.st0{fill:none;stroke:#E4E424;stroke-width:2;stroke-miterlimit:10;}
	.st1{fill:#E4E424;}
	.st2{font-family:'Quantify-Bold';}
	.st3{font-size:72.3831px;}
	.st4{font-size:71.8816px;}
</style>
<g>
	<path class="st0" d="M160.4,38.8c-0.8-9.3,1.4-17.7,8.1-24.6c4.6-4.6,10.2-7.2,16.6-8.3c0.1,0.1,0.1,0.1,0.1,0.2
		c0.3,1.9,0.3,1.9-1.5,2.5c-4.9,1.6-9,4.3-11.5,8.9c-6.9,12.9,1.4,25,11.4,27.8c1.2,0.3,2.5,0.5,3.9,0.7c0.1,0.9,0.1,1.9,0.1,2.9
		c0,0.2-0.3,0.4-0.5,0.6c-0.7,0.4-1.6,0.7-2.2,1.3c-1.7,1.4-2.3,3.2-1.7,5.4c0.1,0.5,0.1,0.7-0.4,0.9c-0.9,0.5-1.7,1-2.5,1.4
		c-1.2-1.2-2.2-2.5-3.4-3.6c-4.5-4.1-9.8-5.5-15.7-4.5c-3.2,0.5-6.2,1.5-8.8,3.6c-3.5,3-5.7,6.8-6.7,11.3c-0.8,3.4-0.7,6.7,0.5,10
		c0.2,0.4,0.1,0.6-0.3,0.8c-0.4,0.2-0.7,0.4-1.2,0.6c-0.3-0.6-0.8-1.2-1-1.9c-0.4-1.7-0.9-3.4-1.1-5.1c-0.5-4.5,0-8.9,1.3-13.2
		c1.1-3.7,3.2-6.8,5.6-9.7c2.1-2.6,4.4-4.9,7.3-6.5C158,39.8,159.2,39.3,160.4,38.8z"/>
	<path class="st0" d="M188.7,88.1c-12.6,9.7-30,8.3-40.8-5c0.6-0.4,1.1-0.8,1.7-1c0.2-0.1,0.6,0.2,0.8,0.4c1.9,1.9,4,3.4,6.4,4.5
		c5.9,2.6,11.7,2,17.3-1c5.3-2.9,8-7.7,9.1-13.4c0.8-3.9,0.1-7.7-1.7-11.4c0.9-0.6,1.8-1.2,2.7-1.7c0.1-0.1,0.5,0.1,0.7,0.3
		c1.6,1.3,3.4,2,5.4,1.3c1-0.3,1.8-1,3-1.6c0.8,0.4,1.8,1,2.9,1.6c-2.2,5.2-2.8,10.4-0.6,15.7c1.8,4.1,4.5,7.4,8.4,9.7
		c6.8,4,18.4,2.6,24.1-4.7c0.5,0.3,1,0.7,1.7,1.1c-0.8,1-1.4,2-2.2,2.7c-4.8,4.5-10.4,7.4-16.9,8.3c-6.6,0.8-13-0.3-18.9-3.6
		C190.6,89.6,189.7,88.8,188.7,88.1z"/>
	<path class="st0" d="M192,8c-0.1-2.3,0-2.1,2-1.8c2.4,0.3,4.6,1.3,6.7,2.4c4.7,2.5,8.9,5.7,11.8,10.3c2.5,4,4.1,8.4,4.8,13.2
		c0.3,2,0.3,4.1-0.2,6.1c-0.1,0.5,0.1,0.6,0.4,0.8c9.1,4.2,15.1,10.9,17.3,20.8c1.2,5.6,0.5,11.1-1.4,16.5c0,0.1-0.1,0.2-0.2,0.4
		c-0.5-0.2-1-0.4-1.4-0.7c-0.2-0.2-0.4-0.5-0.4-0.8c0.2-1.6,0.6-3.2,0.8-4.8c0.4-4.8-0.9-9.2-4-12.9c-2.7-3.2-6-5.7-10.1-6.7
		c-7.3-1.7-15.8,0.8-20.2,7.5c-0.1,0.1-0.2,0.2-0.3,0.4c-0.9-0.5-1.8-0.9-2.7-1.4c-0.2-0.1-0.2-0.5-0.2-0.8c-0.1-1.1,0-2.3-0.2-3.3
		c-0.5-1.8-1.8-2.9-3.6-3.4c-0.2-0.1-0.6-0.3-0.6-0.5c-0.1-1,0-2.1,0-3.2c5.8-0.7,10.8-3,14.2-7.9c2.5-3.6,4-7.6,3.8-12
		C207.7,18.2,201,9.3,192,8z"/>
	<path class="st1" d="M177.9,78.1c-2.4-1-4.4-2.4-6.3-4.1c-4.3-4.1-7.1-9-8.1-14.9c-0.3-1.8-0.2-3.6-0.2-5.4c0-0.2,0.4-0.5,0.6-0.5
		c2.1-0.1,4.1,0.3,6.1,1.1c0.2,0.1,0.5,0.6,0.5,0.9c0.1,3.9,1.3,7.5,3.6,10.7c1.5,2.1,3.4,3.8,5.7,5.1c0.3,0.1,0.6,0.6,0.5,0.8
		c-0.4,2.1-1,4.2-2.1,6.1C178.1,77.9,178,78,177.9,78.1z"/>
	<path class="st1" d="M188.3,29.8c5.2,0.1,9.7,1.1,13.7,3.7c1.1,0.7,1.2,0.8,0.4,1.9c-1,1.3-2.2,2.5-3.3,3.8
		c-0.4,0.5-0.8,0.5-1.4,0.2c-6.1-3.1-12.2-3.2-18.2,0.3c-0.4,0.3-0.8,0.3-1.1-0.1c-1.3-1.4-2.6-2.9-3.8-4.3
		c-0.5-0.5-0.3-0.9,0.3-1.3c3.1-2.1,6.6-3.3,10.3-3.8C186.3,29.9,187.6,29.9,188.3,29.8z"/>
	<path class="st1" d="M213.9,55.4c-0.8,9.6-4.8,17.3-13.4,22.2c-1.1,0.6-1.2,0.6-1.7-0.5c-0.7-1.6-1.2-3.3-1.7-4.9
		c-0.2-0.5,0-0.8,0.5-1.1c4.8-2.9,7.7-7.2,8.8-12.7c0.2-1.1,0.2-2.2,0.2-3.3c0-0.5,0.2-0.8,0.6-0.9c1.9-0.4,3.8-0.8,5.7-1.2
		c0.6-0.1,0.9,0.1,0.9,0.8C213.8,54.3,213.9,54.8,213.9,55.4z"/>
	<text transform="matrix(1 0 0 1 0.2487 71.9246)" class="st1 st2 st3">Radi</text>
	<text transform="matrix(1 0 0 1 239.8345 71.9246)" class="st1 st2 st4">active</text>
	<path class="st1" d="M251,107.3h-11.4c-2.1,0-4.3-0.2-6.4-0.6l-0.8-0.1v-7.3h16.8c0.6,0,0.8-0.2,0.9-0.3c0.1-0.1,0.3-0.3,0.3-0.7
		v-2.6h-8.8c-3.3,0-5.7-0.8-7.2-2.3s-2.3-4-2.3-7.2v-1.3c0-3.3,0.8-5.7,2.3-7.2c1.5-1.5,4-2.3,7.2-2.3h16v8h-14.3
		c-1.2,0-1.6,0.4-1.6,1.6v0.9c0,1.2,0.4,1.6,1.6,1.6h7.7c3,0,5.4,0.7,6.9,2.2c1.5,1.5,2.3,3.8,2.3,6.8v2.1c0,3-0.8,5.3-2.3,6.8
		C256.4,106.6,254,107.3,251,107.3z M234.4,105c1.7,0.3,3.5,0.4,5.2,0.4H251c2.5,0,4.3-0.6,5.5-1.6c1.1-1.1,1.7-2.9,1.7-5.3v-2.1
		c0-2.5-0.6-4.3-1.7-5.3c-1.1-1.1-2.9-1.6-5.5-1.6h-7.7c-2.3,0-3.6-1.3-3.6-3.6v-0.9c0-2.3,1.3-3.6,3.6-3.6h12.3v-4h-14
		c-2.7,0-4.7,0.6-5.8,1.7c-1.2,1.2-1.7,3.1-1.7,5.8v1.3c0,2.7,0.6,4.7,1.7,5.8c1.2,1.2,3.1,1.7,5.8,1.7h10.8v4.6
		c0,0.9-0.3,1.6-0.9,2.2c-0.6,0.5-1.3,0.8-2.2,0.8h-14.9V105z"/>
	<path class="st1" d="M278.8,107.6h-9.8c-2.4,0-4.3-0.7-5.7-2.1c-1.4-1.4-2.1-3.3-2.1-5.7V90c0-2.4,0.7-4.3,2.1-5.7
		c1.4-1.4,3.3-2.1,5.7-2.1h9.8c2.4,0,4.3,0.7,5.7,2.1c1.4,1.4,2.1,3.3,2.1,5.7v9.8c0,2.4-0.7,4.3-2.1,5.7
		C283.1,106.9,281.2,107.6,278.8,107.6z M268.9,84.2c-1.9,0-3.3,0.5-4.3,1.5c-1,1-1.5,2.4-1.5,4.3v9.8c0,1.9,0.5,3.3,1.5,4.3
		c1,1,2.4,1.5,4.3,1.5h9.8c1.9,0,3.3-0.5,4.3-1.5c1-1,1.5-2.4,1.5-4.3V90c0-1.9-0.5-3.3-1.5-4.3c-1-1-2.4-1.5-4.3-1.5H268.9z
		 M276.4,101.9h-5.1c-1.7,0-2.7-1-2.7-2.7v-8.5c0-1.7,1-2.7,2.7-2.7h5.1c1.7,0,2.7,1,2.7,2.7v8.5
		C279.1,100.9,278.1,101.9,276.4,101.9z M271.3,89.9c-0.6,0-0.7,0.1-0.7,0.7v8.5c0,0.6,0.1,0.7,0.7,0.7h5.1c0.6,0,0.7-0.1,0.7-0.7
		v-8.5c0-0.6-0.1-0.7-0.7-0.7H271.3z"/>
	<path class="st1" d="M299.6,107.2h-9.5V92.1h-3v-7.8h3v-1.9c0-2.2,0.7-3.9,2.1-5.3c1.4-1.3,3.2-2,5.4-2h11.3v8h-1
		c-0.9,0-1.8-0.1-2.7-0.2c-0.7-0.1-1.5-0.1-2.3-0.1h-2.6c-0.2,0-0.3,0.1-0.4,0.1c-0.1,0.1-0.1,0.2-0.1,0.3v1.1h7v7.8h-7V107.2z
		 M292.2,105.2h5.5V90.1h7v-3.8h-7v-3.1c0-0.7,0.3-1.3,0.7-1.8c0.5-0.5,1.1-0.7,1.8-0.7h2.6c0.9,0,1.8,0,2.6,0.1
		c0.5,0.1,1,0.1,1.5,0.2v-3.9h-9.3c-1.7,0-3,0.5-4,1.4c-1,1-1.5,2.2-1.5,3.8v3.9h-3v3.8h3V105.2z"/>
	<path class="st1" d="M319.3,107.6h-2.9c-2.2,0-4-0.7-5.4-2c-1.4-1.4-2-3.2-2-5.4v-9.9h-2.6v-7.8h2.7l0.9-5.1h8.5v5.1h5.3v7.8h-5.3
		v8.8c0,0.2,0.1,0.3,0.1,0.4c0.1,0.1,0.2,0.1,0.4,0.1h6.6v7.4l-0.9,0.1c-0.8,0.1-1.7,0.2-2.7,0.2
		C321.1,107.5,320.2,107.6,319.3,107.6z M308.4,88.3h2.6v11.9c0,1.7,0.5,3,1.5,3.9c1,1,2.3,1.5,4,1.5h2.9c0.9,0,1.7-0.1,2.4-0.2
		l0.2,0c0.5,0,1.1,0,1.6-0.1v-3.7h-4.6c-0.7,0-1.3-0.2-1.8-0.7c-0.5-0.5-0.7-1.1-0.7-1.8V88.3h5.3v-3.8h-5.3v-5.1h-4.8l-0.9,5.1
		h-2.4V88.3z"/>
	<path class="st1" d="M356.2,107.2h-9.4l-3.5-11.3l-3.5,11.3h-9.4l-7.7-24.6h10.2l3.1,11l3.1-11h8.3l3.1,11l3.1-11h10.2L356.2,107.2
		z M348.3,105.2h6.4l6.4-20.6h-6l-4.6,16.4l-4.6-16.4h-5.3l-4.6,16.4l-4.6-16.4h-6l6.4,20.6h6.4l5-16L348.3,105.2z"/>
	<path class="st1" d="M370.2,107.6h-1.5c-2.2,0-4-0.7-5.4-2c-1.4-1.4-2-3.2-2-5.4v-1.9c0-2.2,0.7-4,2-5.4c1.4-1.4,3.2-2,5.4-2h7.8
		v-0.6c0-0.2,0-0.2-0.1-0.3c-0.1-0.1-0.2-0.1-0.4-0.1h-3.7c-1.3,0-2.5,0.1-3.6,0.2c-1.4,0.2-2.8,0.3-4.2,0.3h-1v-7.1l0.8-0.1
		c1.6-0.2,3.2-0.4,4.8-0.4c1.4-0.3,3-0.4,4.7-0.4h4.7c2.2,0,4,0.7,5.4,2c1.4,1.4,2,3.1,2,5.3v17.6h-8.4l-0.3-1.6
		c-0.4,0.2-0.9,0.4-1.3,0.6c-0.8,0.3-1.7,0.6-2.6,0.9C372.3,107.5,371.2,107.6,370.2,107.6z M368.7,92.9c-1.7,0-3,0.5-4,1.5
		s-1.5,2.3-1.5,4v1.9c0,1.7,0.5,3,1.5,4c1,1,2.3,1.5,4,1.5h1.5c0.9,0,1.7-0.1,2.5-0.4c0.9-0.3,1.7-0.5,2.4-0.8
		c0.8-0.3,1.5-0.7,2.2-1.2l1.2-0.8l0.6,2.8h4.8V89.7c0-1.7-0.5-2.9-1.5-3.9c-1-1-2.3-1.5-4-1.5h-4.7c-1.6,0-3.1,0.1-4.4,0.4l-0.2,0
		c-1.3,0-2.5,0.1-3.8,0.2v3.4c1,0,2-0.1,3-0.2c1.2-0.1,2.5-0.2,3.9-0.2h3.7c0.7,0,1.3,0.2,1.8,0.7c0.5,0.5,0.7,1.1,0.7,1.7v2.6
		H368.7z M372.3,101.7h-1.1c-0.7,0-1.3-0.2-1.8-0.7c-0.5-0.5-0.7-1.1-0.7-1.8v-0.4c0-0.7,0.2-1.3,0.7-1.8c0.5-0.5,1.1-0.7,1.8-0.7
		h7.2v4.3l-0.7,0.2c-0.6,0.2-1.2,0.3-1.9,0.5c-0.5,0.1-1.1,0.2-1.7,0.3C373.5,101.6,372.9,101.7,372.3,101.7z M371.3,98.2
		c-0.2,0-0.3,0.1-0.4,0.1c-0.1,0.1-0.1,0.2-0.1,0.4v0.4c0,0.2,0.1,0.3,0.1,0.4s0.2,0.1,0.4,0.1h1.1c0.5,0,1,0,1.6-0.1
		c0.6-0.1,1.1-0.2,1.6-0.3c0.3-0.1,0.7-0.1,1-0.2v-0.8H371.3z"/>
	<path class="st1" d="M397.2,107.2h-9.5V82.6h8.5l0.3,1.9c0.3-0.2,0.6-0.4,0.9-0.6c0.7-0.4,1.6-0.8,2.6-1.2c1-0.4,2.2-0.6,3.4-0.6
		h2.9v8.6h-4.6c-0.7,0-1.3,0.1-1.9,0.2c-0.6,0.1-1.2,0.3-1.7,0.4c-0.3,0.1-0.6,0.2-0.9,0.3V107.2z M389.8,105.2h5.5V90.4l0.6-0.3
		c0.5-0.2,1.1-0.5,1.8-0.7c0.6-0.2,1.2-0.3,1.9-0.5c0.7-0.2,1.5-0.2,2.3-0.2h2.6v-4.6h-0.9c-1,0-1.9,0.2-2.8,0.5
		c-0.9,0.3-1.6,0.7-2.3,1c-0.7,0.4-1.4,0.9-2,1.5l-1.4,1.2l-0.6-3.7h-4.8V105.2z"/>
	<path class="st1" d="M418.6,107.5h-5c-2.2,0-4-0.7-5.4-2c-1.4-1.3-2-3.1-2-5.3V89.9c0-2.4,0.7-4.3,2.1-5.7c1.4-1.4,3.3-2.1,5.7-2.1
		h8.5c2.4,0,4.3,0.7,5.7,2.1c1.4,1.4,2.1,3.3,2.1,5.7v8.9h-14.7v0.6c0,0.1,0,0.2,0.1,0.3c0.1,0.1,0.2,0.1,0.4,0.1h8l5.4-0.6v7.3
		l-0.9,0.1c-1.7,0.2-3.4,0.3-5.1,0.4C422,107.4,420.3,107.5,418.6,107.5z M414,84.2c-1.9,0-3.3,0.5-4.3,1.5c-1,1-1.5,2.4-1.5,4.3
		v10.2c0,1.7,0.5,2.9,1.5,3.9c1,1,2.3,1.5,4,1.5h5c1.7,0,3.2-0.1,4.7-0.4l0.2,0c1.4,0,2.8-0.1,4.1-0.2v-3.4l-3.4,0.4h-8
		c-0.7,0-1.3-0.2-1.8-0.7c-0.5-0.5-0.7-1.1-0.7-1.7v-2.6h14.7V90c0-1.9-0.5-3.3-1.5-4.3c-1-1-2.4-1.5-4.3-1.5H414z M422.9,93.5h-9.3
		v-3.3c0-1.7,1-2.7,2.7-2.7h3.8c1.7,0,2.7,1,2.7,2.7V93.5z M415.6,91.6h5.3v-1.4c0-0.6-0.1-0.7-0.7-0.7h-3.8c-0.6,0-0.7,0.1-0.7,0.7
		V91.6z"/>
</g>
</svg>
