<svg xmlns="http://www.w3.org/2000/svg" viewBox="0 0 237.97 139.94"><defs><style>.cls-1{fill:#1533e5;}.cls-2{font-size:33.35px;fill:#232323;font-family:AgencyFB-Bold, Agency FB;font-weight:700;}</style></defs><title>sss_logo</title><g id="Layer_1" data-name="Layer 1"><polygon class="cls-1" points="33.3 59.96 20.63 53.63 8.24 60.48 10.34 46.48 0 36.81 13.97 34.48 19.97 21.66 26.5 34.22 40.55 35.97 30.61 46.06 33.3 59.96"/><path class="cls-1" d="M135.57,130.58c3.18-1,7.88-1.44,13.82-1.44,17.09,0,44.54,3.88,76.26,11C267.42,149.58,304.7,162,327.91,174a283.83,283.83,0,0,0-122.84-58c-34.24-6.94-59.08-5.42-62.06-5.2l-9.41,9.56Z" transform="translate(-97.01 -74.03)"/><path class="cls-1" d="M284,143.61a26.48,26.48,0,0,0-3.72-8.54q-.36-.48-7.91-10-4.28-5.3-4.28-8.93a7,7,0,0,1,3.87-6.31,14.09,14.09,0,0,1,7.5-2,12,12,0,0,1,1.73.18,11.88,11.88,0,0,0,1.61.18q1.07,0,1.07-1a1.41,1.41,0,0,0-.18-.6q-5.65-11.37-7.2-15.71-.54-1.43-1.43-1.43c-.24,0-.58,0-1,.06q-12,1.79-20.17,7.74-10.06,7.2-10.06,18.09a24.22,24.22,0,0,0,2.79,11.47A282.14,282.14,0,0,1,284,143.61Z" transform="translate(-97.01 -74.03)"/><path class="cls-1" d="M259.21,149.51q-1.16,4-5.81,6.33-2.8,1.37-11.43,3.33-.89.18-.89.83,0,1.84,4.7,10.21t6.07,8.36a6.7,6.7,0,0,0,.77-.06,43.47,43.47,0,0,0,21.72-9.7,28.36,28.36,0,0,0,8.71-12C275.35,154.23,267.34,151.8,259.21,149.51Z" transform="translate(-97.01 -74.03)"/><path class="cls-1" d="M244.57,126.11l-6.93-8.75q-4.28-5.3-4.28-8.93a7,7,0,0,1,3.87-6.31,14.09,14.09,0,0,1,7.5-2,12,12,0,0,1,1.73.18,11.88,11.88,0,0,0,1.61.18q1.07,0,1.07-1a1.41,1.41,0,0,0-.18-.6q-5.65-11.37-7.2-15.71-.54-1.43-1.43-1.43c-.24,0-.58,0-1,.06q-12,1.79-20.17,7.74-10.06,7.2-10.06,18.09a24.52,24.52,0,0,0,1.54,8.68A289,289,0,0,1,244.57,126.11Z" transform="translate(-97.01 -74.03)"/><path class="cls-1" d="M224.68,140.8q-.82,4.72-6,7.32-2.8,1.37-11.43,3.33-.89.18-.89.83,0,1.84,4.7,10.21t6.07,8.36a6.7,6.7,0,0,0,.77-.06,43.47,43.47,0,0,0,21.72-9.7q7.4-6.27,9.41-14.37C240.89,144.59,232.72,142.6,224.68,140.8Z" transform="translate(-97.01 -74.03)"/><path class="cls-1" d="M208.42,115.86l-5-6.24q-4.28-5.3-4.28-8.93a7,7,0,0,1,3.87-6.31,14.09,14.09,0,0,1,7.5-2,12,12,0,0,1,1.73.18,11.88,11.88,0,0,0,1.61.18q1.07,0,1.07-1a1.41,1.41,0,0,0-.18-.6q-5.65-11.37-7.2-15.71Q207,74,206.15,74c-.24,0-.58,0-1,.06q-12,1.79-20.17,7.74Q174.91,89,174.91,99.92A24.24,24.24,0,0,0,177.49,111,284.67,284.67,0,0,1,208.42,115.86Z" transform="translate(-97.01 -74.03)"/><path class="cls-1" d="M190.28,134.1q-1.17,4-5.79,6.28-2.8,1.37-11.43,3.33-.89.18-.89.83,0,1.84,4.7,10.21t6.07,8.36a6.7,6.7,0,0,0,.77-.06,43.47,43.47,0,0,0,21.72-9.7q7.53-6.39,9.48-14.67C206.4,136.92,198.12,135.38,190.28,134.1Z" transform="translate(-97.01 -74.03)"/><text class="cls-2" transform="translate(0 133.26)">Smart Space System</text></g></svg>