<?xml version="1.0" encoding="utf-8"?>
<!-- Generator: Adobe Illustrator 21.1.0, SVG Export Plug-In . SVG Version: 6.00 Build 0)  -->
<svg version="1.1" id="Layer_1" xmlns="http://www.w3.org/2000/svg" xmlns:xlink="http://www.w3.org/1999/xlink" x="0px" y="0px"
	 viewBox="0 0 432 111.8" style="enable-background:new 0 0 432 111.8;" xml:space="preserve">
<style type="text/css">
	.st0{fill:#1533E5;}
	.st1{fill:#232323;}
</style>
<g>
	<polygon class="st0" points="30.8,63.3 19.3,57.5 8,63.7 9.9,51 0.5,42.2 13.2,40.1 18.7,28.4 24.6,39.8 37.4,41.4 28.4,50.6 	"/>
	<path class="st0" d="M35.6,60.2c2.9-0.9,7.2-1.3,12.6-1.3c15.6,0,40.5,3.5,69.4,10c38,8.6,71.9,19.8,93,30.8
		c-40.3-32.9-82.7-46.9-111.8-52.8c-31.2-6.3-53.8-4.9-56.5-4.7l-8.6,8.7L35.6,60.2z"/>
	<g>
		<path class="st0" d="M170.7,72c-0.6-2.6-1.7-5.2-3.4-7.8c-0.2-0.3-2.6-3.3-7.2-9.1c-2.6-3.2-3.9-5.9-3.9-8.1
			c0-2.5,1.2-4.4,3.5-5.7c1.9-1.2,4.2-1.8,6.8-1.8c0.4,0,0.9,0.1,1.6,0.2c0.7,0.1,1.2,0.2,1.5,0.2c0.6,0,1-0.3,1-0.9
			c0-0.1-0.1-0.3-0.2-0.5c-3.4-6.9-5.6-11.7-6.6-14.3c-0.3-0.9-0.8-1.3-1.3-1.3c-0.2,0-0.5,0-0.9,0.1c-7.3,1.1-13.4,3.4-18.4,7
			c-6.1,4.4-9.2,9.9-9.2,16.5c0,3.7,0.8,7.2,2.5,10.4C147.7,60.8,159.1,65.8,170.7,72z"/>
		<path class="st0" d="M148.1,77.4c-0.7,2.4-2.5,4.3-5.3,5.8c-1.7,0.8-5.2,1.8-10.4,3c-0.5,0.1-0.8,0.4-0.8,0.8
			c0,1.1,1.4,4.2,4.3,9.3c2.9,5.1,4.7,7.6,5.5,7.6c0.2,0,0.4,0,0.7-0.1c7.8-1.3,14.3-4.2,19.8-8.8c3.8-3.2,6.5-6.9,7.9-11
			C162.8,81.7,155.5,79.5,148.1,77.4z"/>
	</g>
	<g>
		<path class="st0" d="M134.8,56.1c-1.1-1.4-3.2-4-6.3-8c-2.6-3.2-3.9-5.9-3.9-8.1c0-2.5,1.2-4.4,3.5-5.7c1.9-1.2,4.2-1.8,6.8-1.8
			c0.4,0,0.9,0.1,1.6,0.2c0.7,0.1,1.2,0.2,1.5,0.2c0.6,0,1-0.3,1-0.9c0-0.1-0.1-0.3-0.2-0.5c-3.4-6.9-5.6-11.7-6.6-14.3
			c-0.3-0.9-0.8-1.3-1.3-1.3c-0.2,0-0.5,0-0.9,0.1c-7.3,1.1-13.4,3.4-18.4,7c-6.1,4.4-9.2,9.9-9.2,16.5c0,2.8,0.5,5.4,1.4,7.9
			C113.5,49.4,123.9,52.2,134.8,56.1z"/>
		<path class="st0" d="M116.7,69.5c-0.5,2.9-2.3,5.1-5.5,6.7c-1.7,0.8-5.2,1.8-10.4,3c-0.5,0.1-0.8,0.4-0.8,0.8
			c0,1.1,1.4,4.2,4.3,9.3c2.9,5.1,4.7,7.6,5.5,7.6c0.2,0,0.4,0,0.7-0.1c7.8-1.3,14.3-4.2,19.8-8.8c4.5-3.8,7.3-8.2,8.6-13.1
			C131.4,72.9,124,71.1,116.7,69.5z"/>
	</g>
	<g>
		<path class="st0" d="M101.9,46.8c-1.1-1.4-2.6-3.3-4.5-5.7c-2.6-3.2-3.9-5.9-3.9-8.1c0-2.5,1.2-4.4,3.5-5.7
			c1.9-1.2,4.2-1.8,6.8-1.8c0.4,0,0.9,0.1,1.6,0.2c0.7,0.1,1.2,0.2,1.5,0.2c0.6,0,1-0.3,1-0.9c0-0.1-0.1-0.3-0.2-0.5
			c-3.4-6.9-5.6-11.7-6.6-14.3c-0.3-0.9-0.8-1.3-1.3-1.3c-0.2,0-0.5,0-0.9,0.1c-7.3,1.1-13.4,3.4-18.4,7c-6.1,4.4-9.2,9.9-9.2,16.5
			c0,3.6,0.8,7,2.3,10.1C82,43.2,91.5,44.5,101.9,46.8z"/>
		<path class="st0" d="M85.4,63.4c-0.7,2.4-2.5,4.3-5.3,5.7c-1.7,0.8-5.2,1.8-10.4,3c-0.5,0.1-0.8,0.4-0.8,0.8
			c0,1.1,1.4,4.2,4.3,9.3c2.9,5.1,4.7,7.6,5.5,7.6c0.2,0,0.4,0,0.7-0.1c7.8-1.3,14.3-4.2,19.8-8.8c4.6-3.9,7.4-8.3,8.6-13.3
			C100.1,65.9,92.5,64.5,85.4,63.4z"/>
	</g>
</g>
<g>
	<path class="st1" d="M222.1,70.3c0,1.4-0.7,2.2-2.2,2.2h-7.1c-1.4,0-2.1-0.7-2.1-2.2v-5.7h3.5v4.8h4.3v-4.7l-7.1-6.7
		c-0.5-0.5-0.8-1.1-0.8-1.9v-5.3c0-1.5,0.7-2.2,2.1-2.2h7.1c1.4,0,2.2,0.7,2.2,2.2v5.3h-3.5v-4.5h-4.3V56l7.1,6.7
		c0.5,0.5,0.8,1.1,0.8,1.9V70.3z"/>
	<path class="st1" d="M241.6,72.4h-3.4V60l-3.3,0.1v12.3h-3.5V60l-3.3,0.1v12.3h-3.5V57.1h3.5v0.6c0.8-0.1,1.6-0.3,2.4-0.4
		c1-0.2,1.8-0.2,2.4-0.2c0.8,0,1.3,0.2,1.5,0.7c0.8-0.1,1.7-0.3,2.5-0.4c1.1-0.2,2-0.3,2.6-0.3c1.3,0,1.9,0.6,1.9,1.9V72.4z"/>
	<path class="st1" d="M253.9,72.4h-3.3v-0.5c-0.8,0.1-1.6,0.2-2.4,0.4c-1,0.2-1.8,0.2-2.3,0.2c-1.3,0-1.9-0.6-1.9-1.9v-5.5
		c0-1.3,0.7-1.9,2-1.9h4.7v-3.5h-3.3v2.2h-3.1V59c0-1.3,0.7-1.9,2-1.9h5.9c1.3,0,1.9,0.6,1.9,1.9V72.4z M250.6,69.7v-4.1h-3.3v4.2
		L250.6,69.7z"/>
	<path class="st1" d="M266,63.5h-3.4V60l-2.7,0.1v12.3h-3.5V57.1h3.5v0.6c0.7-0.1,1.4-0.3,2.1-0.4c0.9-0.2,1.6-0.2,2.2-0.2
		c1.3,0,1.9,0.6,1.9,1.9V63.5z"/>
	<path class="st1" d="M274.6,72.4h-3.8c-1.3,0-1.9-0.6-1.9-1.9V60.1h-1.6v-3h1.6V53h3.5v4.2h2.2v3h-2.2v9.4h2.3V72.4z"/>
	<path class="st1" d="M294.5,70.3c0,1.4-0.7,2.2-2.2,2.2h-7.1c-1.4,0-2.1-0.7-2.1-2.2v-5.7h3.5v4.8h4.3v-4.7l-7.1-6.7
		c-0.5-0.5-0.8-1.1-0.8-1.9v-5.3c0-1.5,0.7-2.2,2.1-2.2h7.1c1.4,0,2.2,0.7,2.2,2.2v5.3h-3.5v-4.5h-4.3V56l7.1,6.7
		c0.5,0.5,0.8,1.1,0.8,1.9V70.3z"/>
	<path class="st1" d="M307.3,69.3c0,1.2-0.4,2.1-1.3,2.6c-0.6,0.4-1.6,0.5-2.9,0.5c-0.3,0-0.7,0-1.3,0s-0.9,0-1.2,0V78h-3.5V57.1
		h3.5v0.6c0.8-0.1,1.6-0.2,2.4-0.4c1-0.2,1.8-0.2,2.4-0.2c1.3,0,1.9,0.6,1.9,1.9V69.3z M303.8,68.4V60l-3.3,0.1v9.5h2.2
		C303.5,69.5,303.8,69.2,303.8,68.4z"/>
	<path class="st1" d="M319.6,72.4h-3.3v-0.5c-0.8,0.1-1.6,0.2-2.4,0.4c-1,0.2-1.8,0.2-2.3,0.2c-1.3,0-1.9-0.6-1.9-1.9v-5.5
		c0-1.3,0.7-1.9,2-1.9h4.7v-3.5H313v2.2h-3.1V59c0-1.3,0.7-1.9,2-1.9h5.9c1.3,0,1.9,0.6,1.9,1.9V72.4z M316.3,69.7v-4.1H313v4.2
		L316.3,69.7z"/>
	<path class="st1" d="M332,70.5c0,1.3-0.6,1.9-1.9,1.9h-6c-1.3,0-2-0.6-2-1.9V59c0-1.3,0.7-1.9,2-1.9h6c1.3,0,1.9,0.6,1.9,1.9v3.6
		h-3.4V60h-3.1v9.5h3.1v-2.9h3.4V70.5z"/>
	<path class="st1" d="M344.4,70.5c0,1.3-0.7,1.9-2,1.9h-6c-1.3,0-2-0.6-2-1.9V59c0-1.3,0.7-1.9,2-1.9h6c1.3,0,2,0.6,2,1.9v5.6l-1,1
		h-5.6v4.3h3.3v-2.5h3.3V70.5z M341.1,63.3v-3.7h-3.3v3.7H341.1z"/>
	<path class="st1" d="M364.8,70.3c0,1.4-0.7,2.2-2.2,2.2h-7.1c-1.4,0-2.1-0.7-2.1-2.2v-5.7h3.5v4.8h4.3v-4.7l-7.1-6.7
		c-0.5-0.5-0.8-1.1-0.8-1.9v-5.3c0-1.5,0.7-2.2,2.1-2.2h7.1c1.4,0,2.2,0.7,2.2,2.2v5.3h-3.5v-4.5H357V56l7.1,6.7
		c0.5,0.5,0.8,1.1,0.8,1.9V70.3z"/>
	<path class="st1" d="M377.8,57.1L374,72.2l-1.5,5.8H369l1.6-5.7l-3.9-15.2h3.6l2,10.1l2-10.1H377.8z"/>
	<path class="st1" d="M389.2,70.5c0,1.3-0.6,1.9-1.9,1.9h-5.8c-1.3,0-1.9-0.6-1.9-1.9v-3.3h3.3v2.6h3v-2.4l-5.3-3.1
		c-0.7-0.4-1-1-1-1.7V59c0-1.3,0.7-1.9,2-1.9h5.8c1.3,0,1.9,0.6,1.9,1.9v3.1h-3.3v-2.4h-3v2.2l5.3,3.1c0.7,0.4,1.1,1,1.1,1.7V70.5z"
		/>
	<path class="st1" d="M398.2,72.4h-3.8c-1.3,0-1.9-0.6-1.9-1.9V60.1h-1.6v-3h1.6V53h3.5v4.2h2.2v3h-2.2v9.4h2.3V72.4z"/>
	<path class="st1" d="M410,70.5c0,1.3-0.7,1.9-2,1.9h-6c-1.3,0-2-0.6-2-1.9V59c0-1.3,0.7-1.9,2-1.9h6c1.3,0,2,0.6,2,1.9v5.6l-1,1
		h-5.6v4.3h3.3v-2.5h3.3V70.5z M406.7,63.3v-3.7h-3.3v3.7H406.7z"/>
	<path class="st1" d="M429.4,72.4H426V60l-3.3,0.1v12.3h-3.5V60l-3.3,0.1v12.3h-3.5V57.1h3.5v0.6c0.8-0.1,1.6-0.3,2.4-0.4
		c1-0.2,1.8-0.2,2.4-0.2c0.8,0,1.3,0.2,1.5,0.7c0.8-0.1,1.7-0.3,2.5-0.4c1.1-0.2,2-0.3,2.6-0.3c1.3,0,1.9,0.6,1.9,1.9V72.4z"/>
</g>
</svg>
